<?xml version="1.0" encoding="utf-8"?>
<!-- Generator: Adobe Illustrator 24.3.0, SVG Export Plug-In . SVG Version: 6.00 Build 0)  -->
<svg version="1.1" xmlns="http://www.w3.org/2000/svg" xmlns:xlink="http://www.w3.org/1999/xlink" x="0px" y="0px"
	 viewBox="0 0 400 120" style="enable-background:new 0 0 400 120;" xml:space="preserve">
<style type="text/css">
	.st0{fill:transparent;
	stroke:#FFFFFF;
	stroke-miterlimit:10;
	stroke-dasharray: 350;
	stroke-dashoffset: 0;
		-webkit-animation: animacion 5s forwards;
		-moz-animation: animacion 5s forwrards;
		-o-animation: animacion 5s forwards;
		animation: animacion 5s forwards;
	}
	@-webkit-keyframes animacion {
			0% {
				stroke-dashoffset: 350;
			}
			90% {
				stroke: #fff;
			}

			100% {
				stroke-dashoffset: 0;
				stroke: transparent;
			}
		}

		@-keyframes animacion {
			0% {
				stroke-dashoffset: 350;
			}
			90% {
				stroke: #fff;
			}

			100% {
				stroke-dashoffset: 0;
				stroke: transparent;
			}
		}​​

		@-webkit-keyframes color1{
				from{
					fill:transparent;
				}
				to{
					fill: #FFFFFF;
				}
			}
			@keyframes color1{
				from{
					fill:transparent;
				}
				to{
					fill: #FFFFFF;
				}
			}
	.st1{fill:#transparent;
	-webkit-animation: color1 1s forwards 4s;
				-moz-animation: color1 1s forwards 4s;
				-o-animation: color1 1s forwards 4s;
				animation: color1 1s forwards 4s;}

	
</style>
<g id="Contorno">
	<path id="contorno" class="st0" d="M8.2,33.7l1.5-0.3l13.6,52.5l14.2-23.8l14.2,23.8l13.6-52.5l1.5,0.3l-14,54.4H51l-13.6-23
		l-13.6,23h-1.6L8.2,33.7z M80.1,33.9c1.5,0,2.7,1.2,2.7,2.7s-1.2,2.7-2.7,2.7s-2.7-1.2-2.7-2.7C77.3,35.2,78.6,33.9,80.1,33.9z
		 M79.2,47.9h1.6v27c0,7.7,3.1,11.4,9,11.4v1.6c-6.7,0-10.5-4.4-10.5-13L79.2,47.9L79.2,47.9z M95.9,47.9h5.3V36.4h1.6v11.5h22.1
		v1.5h-22.1V73c0,8.6,3.9,13.9,12.1,13.9c4,0,7.1-1.2,10.2-2.9l0.7,1.4c-3.3,1.8-6.5,3-10.9,3c-9.3,0-13.7-5.8-13.7-15.5V49.4h-5.3
		C95.9,49.4,95.9,47.9,95.9,47.9z M134.2,87.3V33.9h1.6v22.5c2.3-4.4,7.4-9.4,17.9-9.4c10.9,0,17.4,6.9,17.4,18.2v22h-1.6v-22
		c0-10.5-5.8-16.6-15.8-16.6c-11.7,0-16.2,6.8-17.9,11.3v27.3h-1.6V87.3z M249.6,27.5c-0.4,2.6-0.7,5.8-0.7,7.1h-1.5
		c0-3.6-1.1-6.4-3.2-8.2c-2.1-1.9-5.3-2.8-8.9-2.8c-13,0-13.5,9.5-13.5,11.8c0,4.6,1.5,7.6,6.7,11.4l8.6,6.3c6.8,5,9,9.7,9,16.5
		c0,5.3-3.2,18.8-21.9,18.8c-5,0-11.4-0.7-15.7-2.1c0.1-0.8,0.1-0.5,0.2-1.4c0.4-3.1,0.8-4.9,0.9-10.8h1.4c0.5,3.5,1.7,6,3.6,7.8
		c2.2,2.1,5.3,3.2,9.4,3.2c14.2,0,14.4-11.6,14.4-14c0-4.1-1.6-7.5-6.2-11.1l-8.6-6.6c-6.5-5-9.2-9-9.2-15.6
		c0-5.7,2.8-17.5,20.5-17.4c5.4,0,11.2,0.4,15.6,1.1C250.1,23.3,249.9,25.5,249.6,27.5z M282.9,45.4h-12.8l-4.7,28.9
		c-0.2,1.1-0.4,2.7-0.4,4.1c0,2.2,0.8,4.5,4.2,4.5c0.7,0,4.1,0,9.8-4.8l0.7,0.7c-5.5,7.4-10.2,9.6-14.5,9.6c-6.3,0-7.9-3.9-7.9-8.2
		c0-2.7,0.4-5.5,1-8.8l4.6-25.8h-6.6l0.3-1.7c0.9-0.1,4.3-0.7,6-2.4c0.4-0.5,2.5-2.2,4.6-9.9l0.4-1.5l5.5-0.7c0,0-1.6,8.2-2.2,12.7
		h12.7L282.9,45.4z M321.7,54.6c-6.7,15.1-21.6,41.2-25.2,46.9c-7.1,11.2-11.9,13.2-19.4,13.2c-1.4,0-9-0.1-9-5.1c0-2,1.4-4,3.8-4
		c2.3,0,2.9,1.6,3.4,2.3c1.1,2,1.4,3.5,3.7,3.5c1.8,0,5.9-0.1,11.4-8.2c1.8-2.6,2.6-3.9,8.3-14.3l-7.1-38.7
		c-0.5-2.6-0.6-3.8-2.3-3.8c-1.4,0-2.9,2-4.5,4.2l-1.3-0.9c4.6-8.5,8-9.2,10.7-9.2c2.4,0,3.9,1.2,4.6,3.6c0.5,1.7,4,19.8,5.8,36.6
		c10.2-20.9,12.9-27.7,12.9-29.8c0-1-0.3-1.4-1-2.4s-1.4-1.9-1.4-3.8c0-1.3,1.1-4.2,4.9-4.2c3.7,0,4.8,2.3,4.8,5
		C324.4,47.7,323.6,50.3,321.7,54.6z M337.5,80.4c0,1.3,0.4,2,1.7,2c2.2,0,4.3-3.2,5.2-4.4l1.3,1c-2,3.7-6.1,9.2-11.3,9.2
		c-4.8,0-5-3.6-5-5s0.4-4,0.8-6.3c2.8-17.5,8.3-51.6,8.3-55.7c0-2.8-1-3.8-5.5-4.1l0.2-1.5c2.7,0,7-0.4,8.2-0.6
		c2.7-0.3,4.8-0.8,6.2-1.5l0.4,0.4C346.4,20.6,337.5,77.3,337.5,80.4z M361.8,64.5c-0.2,2.1-0.2,4.1-0.2,5.6c0,11,4.8,13,9.7,13
		c7.1,0,12.2-4.8,12.5-5l0.7,0.6c-0.8,1.2-6.9,9.6-17,9.6c-8,0-13.6-5-13.6-17.4c0-16.7,8.9-30.4,23.2-30.4c8.2,0,12,4.3,12,9.6
		C389.1,64,371,64.5,361.8,64.5z M375.2,43.7c-1.3,0-2.9,0.2-4.8,1.3c-3,1.9-6.9,6.6-8.2,17c1.5,0,4.8,0,7.8-0.6
		c7.4-1.3,11-5.3,11-11C380.9,48.6,380.7,43.7,375.2,43.7z"/>
</g>
<g id="Isotipo_1_">
	<path id="Isotipo" class="st1" d="M200.8,49.8L200.8,49.8h-5.1v-0.1c0-1.2-0.3-2.3-1-3.2c-0.6-0.2-1.2-0.4-1.9-0.4v-2.4h5.1
		c0.5,1.1,0.8,2.2,0.8,3.5c0.1,0,0.2,0.1,0.2,0.2C199.6,48,200.3,48.8,200.8,49.8z M198.5,47c-1.5-1.2-3.3-2-5.5-2.2
		c-0.1-0.1-0.2-0.2-0.4-0.3c-1-0.8-2.4-1.6-4.2-2.5c-2.9-1.4-4.7-2.7-5.7-3.3c-1.4-1.2-2.5-2.3-3.3-3.7c-0.6-1-0.8-2.1-0.8-3.5
		c0-2.3,1-4.3,2.9-5.9c1.8-1.6,4.3-2.5,7.4-2.5c1.6,0,3.3,0.2,4.5,0.6c0.8,0.2,1.8,0.6,2.9,1.2c0.2,1,0.2,1.9,0.2,1.9v2.3
		c0,1,0,1.6-0.2,1.8c-0.2,0-0.2,0.2-0.4,0.2h-0.2c-0.6-2.5-1.4-4.1-2.7-5.1c-1.2-1-2.9-1.6-4.7-1.6c-1.9,0-3.5,0.6-4.7,1.6
		c-1.4,1-2,2.3-2,3.7c0,1,0.4,2,1.2,3.1c0.8,0.8,3.1,2.3,6.6,4.1c2.7,1.4,4.7,2.5,5.8,3.5c1.2,0.8,2,1.9,2.7,3.1c0,0,0,0,0,0.1
		C198.3,44.7,198.5,45.8,198.5,47z M198.3,49.8L198.3,49.8c-0.2,1-0.6,1.9-1.2,2.8c-1,1.6-2.3,2.9-3.7,3.5c-1.7,0.8-3.7,1.2-6.4,1.2
		c-2.3,0-4.5-0.4-6.6-1c-1.2-0.4-2.1-0.8-2.3-1s-0.4-0.6-0.4-0.8v-0.6c0.2-2,0.4-3.7,0.4-4.9c0-0.8,0-1.2,0.2-1.4
		c0-0.2,0.2-0.2,0.4-0.2s0.2,0,0.4,0.2c0,0.2,0.2,0.4,0.2,0.6c0.2,2,1.2,3.9,2.9,5.5c1.6,1.6,3.7,2.5,6,2.5c1.2,0,2.5-0.2,3.7-0.8
		c1-0.6,2-1.4,2.7-2.5c0.6-1,1-2,1-3v-0.1c0-1.2-0.3-2.3-1-3.2c0.8,0.3,1.5,0.7,2.1,1.2C197.5,48.3,198,49,198.3,49.8z M194.6,46.5
		c-0.6-0.2-1.2-0.4-1.9-0.4c-0.2,0-0.5,0-0.7,0c-1.9,0-3.5,0.6-4.7,1.6s-2.3,2.9-2.7,5.1h-0.2c0,0-0.2,0-0.4-0.2
		c0-0.2,0-0.8-0.2-1.8v-2.3c0-0.2,0-0.8,0.2-1.8c1-0.4,1.8-1,2.9-1.2c1.2-0.4,2.7-0.6,4.5-0.6c0.5,0,0.9,0,1.3,0.1
		c0.1,0,0.2,0,0.4,0c0.5,0.4,0.9,0.8,1.2,1.1C194.4,46.1,194.5,46.3,194.6,46.5z M202.4,75.3c0,0.2,0,0.6,0,0.6
		c0,0.2-0.2,0.6-0.4,0.8c-0.2,0.2-1,0.6-2.2,1c-2.1,0.8-4.3,1-6.6,1c-2.7,0-4.7-0.4-6.4-1.2s-2.9-2.1-3.7-3.5
		c-1.2-1.6-1.6-3.3-1.6-5.1c0-1.4,0.2-2.7,0.8-3.9c0.6-1.2,1.4-2.3,2.7-3.1c1.2-0.8,3.1-2.1,5.8-3.5c3.5-1.8,5.7-3.1,6.6-4.1
		c0.8-0.8,1.2-1.8,1.2-3.1c0-0.5-0.1-1-0.3-1.5l0,0c0.2-0.8,0.3-1.5,0.3-2.4c0-0.1,0-0.3,0-0.4c0.1,0,0.2,0.1,0.2,0.2
		c0.9,0.8,1.5,1.6,2,2.6s0.8,2.2,0.8,3.4s-0.2,2.5-0.8,3.5c-0.6,1.2-1.9,2.5-3.3,3.7c-0.8,0.6-2.7,1.8-5.8,3.3
		c-2.9,1.4-4.9,2.9-5.7,3.9c-1,1.2-1.4,2.5-1.4,3.7c0,1,0.4,2,1,3.1c0.6,1,1.4,1.8,2.7,2.5c1,0.6,2.2,0.8,3.7,0.8
		c2.3,0,4.1-0.8,6-2.5c1.6-1.6,2.7-3.5,2.9-5.5c0-0.2,0-0.4,0.2-0.6c0-0.2,0.2-0.2,0.4-0.2s0.4,0,0.4,0.2s0.2,0.6,0.2,1.4
		C202,71.6,202.2,73.3,202.4,75.3z M194,85.6c0,1.7-1.4,3.1-3.1,3.1c-1.7,0-3.1-1.4-3.1-3.1s1.4-3.1,3.1-3.1
		C192.7,82.5,194,83.9,194,85.6z M194,17.3c0,1.7-1.4,3.1-3.1,3.1c-1.7,0-3.1-1.4-3.1-3.1s1.4-3.1,3.1-3.1
		C192.7,14.2,194,15.6,194,17.3z"/>
</g>
<g id="Texto_1_">
	<path id="Texto" class="st1" d="M8.2,33.7l1.5-0.3l13.6,52.5l14.2-23.8l14.2,23.8l13.6-52.5l1.5,0.3l-14,54.4H51l-13.6-23l-13.6,23
		h-1.6L8.2,33.7z M80.1,33.9c1.5,0,2.7,1.2,2.7,2.7s-1.2,2.7-2.7,2.7s-2.7-1.2-2.7-2.7C77.3,35.2,78.6,33.9,80.1,33.9z M79.2,47.9
		h1.6v27c0,7.7,3.1,11.4,9,11.4v1.6c-6.7,0-10.5-4.4-10.5-13L79.2,47.9L79.2,47.9z M95.9,47.9h5.3V36.4h1.6v11.5h22.1v1.5h-22.1V73
		c0,8.6,3.9,13.9,12.1,13.9c4,0,7.1-1.2,10.2-2.9l0.7,1.4c-3.3,1.8-6.5,3-10.9,3c-9.3,0-13.7-5.8-13.7-15.5V49.4h-5.3
		C95.9,49.4,95.9,47.9,95.9,47.9z M134.2,87.3V33.9h1.6v22.5c2.3-4.4,7.4-9.4,17.9-9.4c10.9,0,17.4,6.9,17.4,18.2v22h-1.6v-22
		c0-10.5-5.8-16.6-15.8-16.6c-11.7,0-16.2,6.8-17.9,11.3v27.3h-1.6V87.3z M249.6,27.5c-0.4,2.6-0.7,5.8-0.7,7.1h-1.5
		c0-3.6-1.1-6.4-3.2-8.2c-2.1-1.9-5.3-2.8-8.9-2.8c-13,0-13.5,9.5-13.5,11.8c0,4.6,1.5,7.6,6.7,11.4l8.6,6.3c6.8,5,9,9.7,9,16.5
		c0,5.3-3.2,18.8-21.9,18.8c-5,0-11.4-0.7-15.7-2.1c0.1-0.8,0.1-0.5,0.2-1.4c0.4-3.1,0.8-4.9,0.9-10.8h1.4c0.5,3.5,1.7,6,3.6,7.8
		c2.2,2.1,5.3,3.2,9.4,3.2c14.2,0,14.4-11.6,14.4-14c0-4.1-1.6-7.5-6.2-11.1l-8.6-6.6c-6.5-5-9.2-9-9.2-15.6
		c0-5.7,2.8-17.5,20.5-17.4c5.4,0,11.2,0.4,15.6,1.1C250.1,23.3,249.9,25.5,249.6,27.5z M282.9,45.4h-12.8l-4.7,28.9
		c-0.2,1.1-0.4,2.7-0.4,4.1c0,2.2,0.8,4.5,4.2,4.5c0.7,0,4.1,0,9.8-4.8l0.7,0.7c-5.5,7.4-10.2,9.6-14.5,9.6c-6.3,0-7.9-3.9-7.9-8.2
		c0-2.7,0.4-5.5,1-8.8l4.6-25.8h-6.6l0.3-1.7c0.9-0.1,4.3-0.7,6-2.4c0.4-0.5,2.5-2.2,4.6-9.9l0.4-1.5l5.5-0.7c0,0-1.6,8.2-2.2,12.7
		h12.7L282.9,45.4z M321.7,54.6c-6.7,15.1-21.6,41.2-25.2,46.9c-7.1,11.2-11.9,13.2-19.4,13.2c-1.4,0-9-0.1-9-5.1c0-2,1.4-4,3.8-4
		c2.3,0,2.9,1.6,3.4,2.3c1.1,2,1.4,3.5,3.7,3.5c1.8,0,5.9-0.1,11.4-8.2c1.8-2.6,2.6-3.9,8.3-14.3l-7.1-38.7
		c-0.5-2.6-0.6-3.8-2.3-3.8c-1.4,0-2.9,2-4.5,4.2l-1.3-0.9c4.6-8.5,8-9.2,10.7-9.2c2.4,0,3.9,1.2,4.6,3.6c0.5,1.7,4,19.8,5.8,36.6
		c10.2-20.9,12.9-27.7,12.9-29.8c0-1-0.3-1.4-1-2.4s-1.4-1.9-1.4-3.8c0-1.3,1.1-4.2,4.9-4.2c3.7,0,4.8,2.3,4.8,5
		C324.4,47.7,323.6,50.3,321.7,54.6z M337.5,80.4c0,1.3,0.4,2,1.7,2c2.2,0,4.3-3.2,5.2-4.4l1.3,1c-2,3.7-6.1,9.2-11.3,9.2
		c-4.8,0-5-3.6-5-5s0.4-4,0.8-6.3c2.8-17.5,8.3-51.6,8.3-55.7c0-2.8-1-3.8-5.5-4.1l0.2-1.5c2.7,0,7-0.4,8.2-0.6
		c2.7-0.3,4.8-0.8,6.2-1.5l0.4,0.4C346.4,20.6,337.5,77.3,337.5,80.4z M361.8,64.5c-0.2,2.1-0.2,4.1-0.2,5.6c0,11,4.8,13,9.7,13
		c7.1,0,12.2-4.8,12.5-5l0.7,0.6c-0.8,1.2-6.9,9.6-17,9.6c-8,0-13.6-5-13.6-17.4c0-16.7,8.9-30.4,23.2-30.4c8.2,0,12,4.3,12,9.6
		C389.1,64,371,64.5,361.8,64.5z M375.2,43.7c-1.3,0-2.9,0.2-4.8,1.3c-3,1.9-6.9,6.6-8.2,17c1.5,0,4.8,0,7.8-0.6
		c7.4-1.3,11-5.3,11-11C380.9,48.6,380.7,43.7,375.2,43.7z"/>
</g>
</svg>
